<svg xmlns="http://www.w3.org/2000/svg" xmlns:xlink="http://www.w3.org/1999/xlink" width="1920" zoomAndPan="magnify" viewBox="0 0 1440 809.999993" height="1080" preserveAspectRatio="xMidYMid meet" version="1.0"><defs><g/><clipPath id="497a96006c"><path d="M 128.277344 224.519531 L 405 224.519531 L 405 499.769531 L 128.277344 499.769531 Z M 128.277344 224.519531 " clip-rule="nonzero"/></clipPath></defs><g clip-path="url(#497a96006c)"><path fill="#5ce1e6" d="M 266.757812 440.984375 C 309.769531 440.984375 347.578125 463.667969 367.902344 498.171875 L 369.320312 500.0625 L 404.765625 464.613281 C 365.066406 406.953125 292.753906 379.070312 223.277344 397.5 L 238.402344 371.035156 L 280.9375 297.777344 C 290.863281 298.25 300.789062 299.195312 310.710938 301.085938 L 266.757812 224.519531 L 167.035156 397.027344 L 128.277344 464.140625 L 164.199219 500.0625 L 165.144531 498.171875 C 185.9375 463.667969 223.75 440.984375 266.757812 440.984375 Z M 266.757812 440.984375 " fill-opacity="1" fill-rule="evenodd"/></g><path fill="#5ce1e6" d="M 294.644531 371.035156 C 320.636719 374.816406 344.742188 383.792969 366.484375 397.027344 C 365.539062 371.980469 369.792969 346.457031 379.714844 321.878906 C 382.550781 314.789062 385.859375 307.703125 389.640625 300.613281 L 335.289062 300.613281 C 331.507812 309.59375 328.671875 318.570312 325.835938 327.550781 C 316.855469 325.1875 307.878906 323.296875 298.425781 321.878906 L 271.484375 369.144531 C 279.046875 369.144531 287.082031 370.089844 294.644531 371.035156 Z M 294.644531 371.035156 " fill-opacity="1" fill-rule="evenodd"/><g fill="#5ce1e6" fill-opacity="1"><g transform="translate(480.84798, 418.169589)"><g><path d="M 1.703125 0 L 19.5625 0 L 22.953125 -25.515625 L 40.65625 -25.515625 L 44.046875 0 L 61.90625 0 L 43.03125 -125 L 20.578125 -125 Z M 32.828125 -84.359375 L 38.09375 -44.90625 L 25.515625 -44.90625 L 30.78125 -84.359375 L 31.296875 -87.59375 L 32.3125 -87.59375 Z M 32.828125 -84.359375 "/></g></g></g><g fill="#5ce1e6" fill-opacity="1"><g transform="translate(591.059431, 418.169589)"><g><path d="M 54.59375 -42.859375 L 37.421875 -42.859375 L 37.421875 -25.6875 C 37.421875 -23.644531 37.191406 -22.113281 36.734375 -21.09375 C 36.285156 -19.84375 35.601562 -18.765625 34.6875 -17.859375 C 33.78125 -16.953125 32.363281 -16.5 30.4375 -16.5 C 28.96875 -16.5 27.78125 -16.953125 26.875 -17.859375 C 25.0625 -19.785156 24.097656 -22.394531 23.984375 -25.6875 L 23.984375 -99.328125 C 24.097656 -100.234375 24.207031 -101.050781 24.3125 -101.78125 C 24.425781 -102.519531 24.597656 -103.234375 24.828125 -103.921875 C 25.285156 -105.054688 25.9375 -106.101562 26.78125 -107.0625 C 27.632812 -108.03125 28.851562 -108.515625 30.4375 -108.515625 C 32.363281 -108.515625 33.785156 -108.0625 34.703125 -107.15625 C 36.515625 -105.226562 37.421875 -102.617188 37.421875 -99.328125 L 37.421875 -82.140625 L 54.59375 -82.140625 L 54.59375 -99.328125 C 54.363281 -104.429688 53.34375 -108.910156 51.53125 -112.765625 C 50.738281 -114.460938 49.742188 -116.132812 48.546875 -117.78125 C 47.359375 -119.425781 45.914062 -120.867188 44.21875 -122.109375 C 42.519531 -123.359375 40.507812 -124.378906 38.1875 -125.171875 C 35.863281 -125.972656 33.171875 -126.375 30.109375 -126.375 C 27.046875 -126.375 24.320312 -125.972656 21.9375 -125.171875 C 19.5625 -124.378906 17.519531 -123.359375 15.8125 -122.109375 C 14.113281 -120.867188 12.695312 -119.425781 11.5625 -117.78125 C 10.425781 -116.132812 9.460938 -114.460938 8.671875 -112.765625 C 6.859375 -108.910156 5.835938 -104.429688 5.609375 -99.328125 L 5.609375 -25.6875 C 5.835938 -20.46875 6.859375 -15.929688 8.671875 -12.078125 C 9.460938 -10.378906 10.425781 -8.734375 11.5625 -7.140625 C 12.695312 -5.554688 14.113281 -4.140625 15.8125 -2.890625 C 19.332031 -0.0546875 24.097656 1.359375 30.109375 1.359375 C 36.003906 1.359375 40.707031 -0.0546875 44.21875 -2.890625 C 45.914062 -4.140625 47.359375 -5.554688 48.546875 -7.140625 C 49.742188 -8.734375 50.738281 -10.378906 51.53125 -12.078125 C 53.34375 -15.929688 54.363281 -20.46875 54.59375 -25.6875 Z M 54.59375 -42.859375 "/></g></g></g><g fill="#5ce1e6" fill-opacity="1"><g transform="translate(696.508812, 418.169589)"><g><path d="M 54.59375 -42.859375 L 37.421875 -42.859375 L 37.421875 -25.6875 C 37.421875 -23.644531 37.191406 -22.113281 36.734375 -21.09375 C 36.285156 -19.84375 35.601562 -18.765625 34.6875 -17.859375 C 33.78125 -16.953125 32.363281 -16.5 30.4375 -16.5 C 28.96875 -16.5 27.78125 -16.953125 26.875 -17.859375 C 25.0625 -19.785156 24.097656 -22.394531 23.984375 -25.6875 L 23.984375 -99.328125 C 24.097656 -100.234375 24.207031 -101.050781 24.3125 -101.78125 C 24.425781 -102.519531 24.597656 -103.234375 24.828125 -103.921875 C 25.285156 -105.054688 25.9375 -106.101562 26.78125 -107.0625 C 27.632812 -108.03125 28.851562 -108.515625 30.4375 -108.515625 C 32.363281 -108.515625 33.785156 -108.0625 34.703125 -107.15625 C 36.515625 -105.226562 37.421875 -102.617188 37.421875 -99.328125 L 37.421875 -82.140625 L 54.59375 -82.140625 L 54.59375 -99.328125 C 54.363281 -104.429688 53.34375 -108.910156 51.53125 -112.765625 C 50.738281 -114.460938 49.742188 -116.132812 48.546875 -117.78125 C 47.359375 -119.425781 45.914062 -120.867188 44.21875 -122.109375 C 42.519531 -123.359375 40.507812 -124.378906 38.1875 -125.171875 C 35.863281 -125.972656 33.171875 -126.375 30.109375 -126.375 C 27.046875 -126.375 24.320312 -125.972656 21.9375 -125.171875 C 19.5625 -124.378906 17.519531 -123.359375 15.8125 -122.109375 C 14.113281 -120.867188 12.695312 -119.425781 11.5625 -117.78125 C 10.425781 -116.132812 9.460938 -114.460938 8.671875 -112.765625 C 6.859375 -108.910156 5.835938 -104.429688 5.609375 -99.328125 L 5.609375 -25.6875 C 5.835938 -20.46875 6.859375 -15.929688 8.671875 -12.078125 C 9.460938 -10.378906 10.425781 -8.734375 11.5625 -7.140625 C 12.695312 -5.554688 14.113281 -4.140625 15.8125 -2.890625 C 19.332031 -0.0546875 24.097656 1.359375 30.109375 1.359375 C 36.003906 1.359375 40.707031 -0.0546875 44.21875 -2.890625 C 45.914062 -4.140625 47.359375 -5.554688 48.546875 -7.140625 C 49.742188 -8.734375 50.738281 -10.378906 51.53125 -12.078125 C 53.34375 -15.929688 54.363281 -20.46875 54.59375 -25.6875 Z M 54.59375 -42.859375 "/></g></g></g><g fill="#5ce1e6" fill-opacity="1"><g transform="translate(801.958193, 418.169589)"><g><path d="M 39.625 0 L 58 0 L 46.265625 -60.546875 C 49.773438 -62.929688 52.351562 -66.703125 54 -71.859375 C 55.644531 -77.015625 56.46875 -82.710938 56.46875 -88.953125 C 56.46875 -100.742188 54 -109.695312 49.0625 -115.8125 C 44.132812 -121.9375 36.171875 -125 25.171875 -125 L 6.796875 -125 L 6.796875 0 L 25.171875 0 L 25.171875 -52.71875 L 30.109375 -52.71875 Z M 25.171875 -69.734375 L 25.171875 -106.8125 C 26.421875 -106.8125 27.835938 -106.695312 29.421875 -106.46875 C 31.003906 -106.238281 32.476562 -105.503906 33.84375 -104.265625 C 35.207031 -103.128906 36.367188 -101.285156 37.328125 -98.734375 C 38.296875 -96.179688 38.78125 -92.691406 38.78125 -88.265625 C 38.78125 -83.847656 38.296875 -80.421875 37.328125 -77.984375 C 36.367188 -75.546875 35.207031 -73.703125 33.84375 -72.453125 C 32.476562 -71.316406 31.003906 -70.578125 29.421875 -70.234375 C 27.835938 -69.898438 26.421875 -69.734375 25.171875 -69.734375 Z M 25.171875 -69.734375 "/></g></g></g><g fill="#5ce1e6" fill-opacity="1"><g transform="translate(909.958691, 418.169589)"><g><path d="M 6.796875 -125 L 6.796875 0 L 48.8125 0 L 48.8125 -18.875 L 25.171875 -18.875 L 25.171875 -53.234375 L 42.171875 -53.234375 L 42.171875 -73.296875 L 25.171875 -73.296875 L 25.171875 -106.125 L 48.8125 -106.125 L 48.8125 -125 Z M 6.796875 -125 "/></g></g></g><g fill="#5ce1e6" fill-opacity="1"><g transform="translate(1008.775169, 418.169589)"><g><path d="M 39.453125 -54.421875 L 39.453125 0 L 57.828125 0 L 57.828125 -125 L 39.453125 -125 L 39.453125 -73.296875 L 25.171875 -73.296875 L 25.171875 -125 L 6.796875 -125 L 6.796875 0 L 25.171875 0 L 25.171875 -54.421875 Z M 39.453125 -54.421875 "/></g></g></g><g fill="#5ce1e6" fill-opacity="1"><g transform="translate(1120.007066, 418.169589)"><g><path d="M 55.609375 -125 L 37.25 -125 L 37.25 -25.6875 C 37.25 -23.644531 37.019531 -22.113281 36.5625 -21.09375 C 36.226562 -19.84375 35.632812 -18.765625 34.78125 -17.859375 C 33.925781 -16.953125 32.707031 -16.5 31.125 -16.5 C 29.644531 -16.5 28.453125 -16.953125 27.546875 -17.859375 C 25.847656 -19.785156 25 -22.394531 25 -25.6875 L 25 -125 L 6.640625 -125 L 6.640625 -25.6875 C 6.859375 -20.46875 7.875 -15.929688 9.6875 -12.078125 C 10.488281 -10.378906 11.453125 -8.734375 12.578125 -7.140625 C 13.710938 -5.554688 15.132812 -4.140625 16.84375 -2.890625 C 20.351562 -0.0546875 25.113281 1.359375 31.125 1.359375 C 37.019531 1.359375 41.722656 -0.0546875 45.234375 -2.890625 C 46.941406 -4.140625 48.390625 -5.554688 49.578125 -7.140625 C 50.765625 -8.734375 51.753906 -10.378906 52.546875 -12.078125 C 54.367188 -15.929688 55.390625 -20.46875 55.609375 -25.6875 Z M 55.609375 -125 "/></g></g></g><g fill="#5ce1e6" fill-opacity="1"><g transform="translate(1228.857951, 418.169589)"><g><path d="M 6.796875 0 L 29.421875 0 C 34.867188 -0.226562 39.429688 -1.363281 43.109375 -3.40625 C 46.796875 -5.445312 49.71875 -8.050781 51.875 -11.21875 C 54.03125 -14.507812 55.5625 -18.195312 56.46875 -22.28125 C 57.375 -26.363281 57.828125 -30.726562 57.828125 -35.375 C 57.828125 -41.726562 57.144531 -46.832031 55.78125 -50.6875 C 53.175781 -58.394531 49.609375 -63.492188 45.078125 -65.984375 C 47.222656 -67.910156 49.03125 -69.78125 50.5 -71.59375 C 51.976562 -73.414062 53.171875 -75.347656 54.078125 -77.390625 C 54.992188 -79.429688 55.617188 -81.613281 55.953125 -83.9375 C 56.296875 -86.257812 56.46875 -88.894531 56.46875 -91.84375 C 56.46875 -98.082031 55.757812 -103.296875 54.34375 -107.484375 C 52.925781 -111.679688 50.800781 -115.082031 47.96875 -117.6875 C 45.125 -120.300781 41.601562 -122.171875 37.40625 -123.296875 C 33.21875 -124.429688 28.398438 -125 22.953125 -125 L 6.796875 -125 Z M 25.171875 -73.46875 L 25.171875 -106.8125 C 25.960938 -106.8125 27.148438 -106.753906 28.734375 -106.640625 C 30.328125 -106.523438 31.859375 -105.957031 33.328125 -104.9375 C 34.921875 -103.914062 36.226562 -102.269531 37.25 -100 C 38.269531 -97.738281 38.78125 -94.453125 38.78125 -90.140625 C 38.78125 -85.828125 38.269531 -82.535156 37.25 -80.265625 C 36.226562 -78.003906 34.921875 -76.363281 33.328125 -75.34375 C 31.859375 -74.320312 30.328125 -73.753906 28.734375 -73.640625 C 27.148438 -73.523438 25.960938 -73.46875 25.171875 -73.46875 Z M 25.171875 -18.203125 L 25.171875 -56.640625 C 25.960938 -56.640625 27.148438 -56.609375 28.734375 -56.546875 C 30.328125 -56.492188 31.859375 -55.898438 33.328125 -54.765625 C 34.921875 -53.628906 36.226562 -51.726562 37.25 -49.0625 C 38.269531 -46.40625 38.78125 -42.523438 38.78125 -37.421875 C 38.78125 -32.316406 38.269531 -28.429688 37.25 -25.765625 C 36.226562 -23.097656 34.921875 -21.195312 33.328125 -20.0625 C 31.859375 -18.9375 30.328125 -18.34375 28.734375 -18.28125 C 27.148438 -18.226562 25.960938 -18.203125 25.171875 -18.203125 Z M 25.171875 -18.203125 "/></g></g></g></svg>